<svg xmlns="http://www.w3.org/2000/svg" zoomAndPan="magnify"
     preserveAspectRatio="xMidYMid meet" version="1.0" viewBox="37.5 146.51 282.64 75">
    <defs>
        <g/>
        <clipPath id="d49e2aec28">
            <path d="M 37.5 150 L 109 150 L 109 221.507812 L 37.5 221.507812 Z M 37.5 150 " clip-rule="nonzero"/>
        </clipPath>
        <clipPath id="9ed9d14298">
            <path d="M 51 146.507812 L 110.25 146.507812 L 110.25 207 L 51 207 Z M 51 146.507812 " clip-rule="nonzero"/>
        </clipPath>
    </defs>
    <g clip-path="url(#d49e2aec28)">
        <path fill="#000000"
              d="M 73.03125 150.6875 C 53.445312 150.6875 37.5 166.574219 37.5 186.082031 C 37.5 205.59375 53.445312 221.476562 73.03125 221.476562 C 92.617188 221.476562 108.5625 205.59375 108.5625 186.082031 C 108.5625 177.648438 105.699219 170.105469 100.832031 163.925781 L 97.488281 167.875 C 101.730469 173.078125 103.390625 178.855469 103.390625 186.082031 C 103.390625 202.800781 89.816406 216.316406 73.03125 216.316406 C 56.246094 216.316406 42.675781 202.800781 42.675781 186.082031 C 42.675781 169.363281 56.246094 155.84375 73.03125 155.84375 C 78.351562 155.84375 82.328125 156.601562 86.671875 158.992188 L 89.847656 154.835938 C 84.765625 152.039062 79.238281 150.6875 73.03125 150.6875 Z M 73.03125 150.6875 "
              fill-opacity="1" fill-rule="evenodd"/>
    </g>
    <g clip-path="url(#9ed9d14298)">
        <path fill="#000000"
              d="M 59.882812 181.425781 C 61.3125 181.425781 62.398438 182.597656 63.132812 184.941406 C 64.601562 189.332031 65.648438 191.527344 66.273438 191.527344 C 66.75 191.527344 67.246094 191.160156 67.761719 190.429688 C 78.085938 173.960938 87.636719 160.640625 96.417969 150.464844 C 98.695312 147.832031 102.316406 146.515625 107.273438 146.515625 C 108.449219 146.515625 109.238281 146.625 109.644531 146.84375 C 110.046875 147.0625 110.25 147.335938 110.25 147.667969 C 110.25 148.179688 109.644531 149.1875 108.433594 150.6875 C 94.25 167.667969 81.097656 185.597656 68.972656 204.484375 C 68.128906 205.800781 66.402344 206.460938 63.792969 206.460938 C 61.148438 206.460938 59.585938 206.351562 59.109375 206.128906 C 57.859375 205.582031 56.390625 202.78125 54.699219 197.730469 C 52.789062 192.132812 51.835938 188.617188 51.835938 187.191406 C 51.835938 185.652344 53.121094 184.171875 55.691406 182.746094 C 57.273438 181.867188 58.667969 181.425781 59.882812 181.425781 "
              fill-opacity="1" fill-rule="nonzero"/>
    </g>
    <g fill="#000000" fill-opacity="1">
        <g transform="translate(117.060309, 208.271894)">
            <g>
                <path d="M 0.484375 -40.421875 L 0.484375 -50.515625 L 36 -50.515625 L 36 -40.421875 L 24 -40.421875 L 24 0 L 12.484375 0 L 12.484375 -40.421875 Z M 0.484375 -40.421875 "/>
            </g>
        </g>
    </g>
    <g fill="#000000" fill-opacity="1">
        <g transform="translate(150.487428, 208.271894)">
            <g>
                <path d="M 3.671875 0 L 3.671875 -31.40625 L 14.515625 -31.40625 L 14.515625 -26.875 L 14.640625 -26.875 C 14.710938 -27.039062 14.84375 -27.242188 15.03125 -27.484375 C 15.21875 -27.734375 15.613281 -28.164062 16.21875 -28.78125 C 16.832031 -29.394531 17.488281 -29.945312 18.1875 -30.4375 C 18.882812 -30.925781 19.78125 -31.363281 20.875 -31.75 C 21.976562 -32.132812 23.101562 -32.328125 24.25 -32.328125 C 25.4375 -32.328125 26.597656 -32.164062 27.734375 -31.84375 C 28.878906 -31.519531 29.71875 -31.191406 30.25 -30.859375 L 31.109375 -30.375 L 26.578125 -21.1875 C 25.234375 -22.332031 23.351562 -22.90625 20.9375 -22.90625 C 19.632812 -22.90625 18.515625 -22.617188 17.578125 -22.046875 C 16.640625 -21.472656 15.972656 -20.773438 15.578125 -19.953125 C 15.191406 -19.140625 14.914062 -18.445312 14.75 -17.875 C 14.59375 -17.300781 14.515625 -16.851562 14.515625 -16.53125 L 14.515625 0 Z M 3.671875 0 "/>
            </g>
        </g>
    </g>
    <g fill="#000000" fill-opacity="1">
        <g transform="translate(177.914696, 208.271894)">
            <g>
                <path d="M 5.8125 -3.875 C 2.875 -7.082031 1.40625 -11.015625 1.40625 -15.671875 C 1.40625 -20.328125 2.875 -24.265625 5.8125 -27.484375 C 8.75 -30.710938 12.484375 -32.328125 17.015625 -32.328125 C 21.179688 -32.328125 24.613281 -31.019531 27.3125 -28.40625 L 27.3125 -31.40625 L 38.15625 -31.40625 L 38.15625 0 L 27.4375 0 L 27.4375 -3.546875 L 27.3125 -3.546875 C 24.613281 -0.566406 21.179688 0.921875 17.015625 0.921875 C 12.484375 0.921875 8.75 -0.675781 5.8125 -3.875 Z M 15.03125 -21 C 13.625 -19.613281 12.921875 -17.835938 12.921875 -15.671875 C 12.921875 -13.515625 13.59375 -11.75 14.9375 -10.375 C 16.289062 -9.007812 18.066406 -8.328125 20.265625 -8.328125 C 22.390625 -8.328125 24.132812 -9.019531 25.5 -10.40625 C 26.875 -11.789062 27.5625 -13.546875 27.5625 -15.671875 C 27.5625 -17.835938 26.851562 -19.613281 25.4375 -21 C 24.03125 -22.382812 22.304688 -23.078125 20.265625 -23.078125 C 18.179688 -23.078125 16.4375 -22.382812 15.03125 -21 Z M 15.03125 -21 "/>
            </g>
        </g>
    </g>
    <g fill="#000000" fill-opacity="1">
        <g transform="translate(216.668212, 208.271894)">
            <g>
                <path d="M 20.390625 -23.453125 C 18.347656 -23.453125 16.59375 -22.695312 15.125 -21.1875 C 13.65625 -19.675781 12.921875 -17.859375 12.921875 -15.734375 C 12.921875 -13.566406 13.65625 -11.726562 15.125 -10.21875 C 16.59375 -8.707031 18.347656 -7.953125 20.390625 -7.953125 C 21.367188 -7.953125 22.296875 -8.070312 23.171875 -8.3125 C 24.054688 -8.5625 24.703125 -8.8125 25.109375 -9.0625 L 25.65625 -9.4375 L 29.328125 -1.890625 C 29.046875 -1.691406 28.648438 -1.4375 28.140625 -1.125 C 27.628906 -0.820312 26.460938 -0.40625 24.640625 0.125 C 22.828125 0.65625 20.878906 0.921875 18.796875 0.921875 C 14.179688 0.921875 10.128906 -0.695312 6.640625 -3.9375 C 3.148438 -7.1875 1.40625 -11.078125 1.40625 -15.609375 C 1.40625 -20.179688 3.148438 -24.109375 6.640625 -27.390625 C 10.128906 -30.679688 14.179688 -32.328125 18.796875 -32.328125 C 20.878906 -32.328125 22.796875 -32.082031 24.546875 -31.59375 C 26.304688 -31.101562 27.554688 -30.613281 28.296875 -30.125 L 29.328125 -29.390625 L 25.65625 -21.984375 C 24.3125 -22.960938 22.554688 -23.453125 20.390625 -23.453125 Z M 20.390625 -23.453125 "/>
            </g>
        </g>
    </g>
    <g fill="#000000" fill-opacity="1">
        <g transform="translate(243.666925, 208.271894)">
            <g>
                <path d="M 39.5625 -31.40625 L 24.609375 -16.40625 L 41.03125 0 L 27.0625 0 L 14.515625 -12.546875 L 14.515625 0 L 3.671875 0 L 3.671875 -52.65625 L 14.515625 -52.65625 L 14.515625 -20.453125 L 25.46875 -31.40625 Z M 39.5625 -31.40625 "/>
            </g>
        </g>
    </g>
    <g fill="#000000" fill-opacity="1">
        <g transform="translate(280.155183, 208.271894)">
            <g>
                <path d="M 15.1875 -50.515625 L 15.1875 0 L 3.671875 0 L 3.671875 -50.515625 Z M 15.1875 -50.515625 "/>
            </g>
        </g>
    </g>
    <g fill="#000000" fill-opacity="1">
        <g transform="translate(295.950113, 208.271894)">
            <g>
                <path d="M 5.515625 -31.40625 L 5.515625 -43.109375 L 16.34375 -43.109375 L 16.34375 -31.40625 L 22.96875 -31.40625 L 22.96875 -23.140625 L 16.34375 -23.140625 L 16.34375 -13.171875 C 16.34375 -10.265625 17.160156 -8.8125 18.796875 -8.8125 C 19.203125 -8.8125 19.628906 -8.894531 20.078125 -9.0625 C 20.535156 -9.226562 20.882812 -9.390625 21.125 -9.546875 L 21.5 -9.796875 L 24.1875 -1.046875 C 21.863281 0.265625 19.210938 0.921875 16.234375 0.921875 C 14.191406 0.921875 12.429688 0.566406 10.953125 -0.140625 C 9.484375 -0.859375 8.367188 -1.820312 7.609375 -3.03125 C 6.859375 -4.238281 6.320312 -5.503906 6 -6.828125 C 5.675781 -8.148438 5.515625 -9.566406 5.515625 -11.078125 L 5.515625 -23.140625 L 0.984375 -23.140625 L 0.984375 -31.40625 Z M 5.515625 -31.40625 "/>
            </g>
        </g>
    </g>
</svg>