<svg xmlns="http://www.w3.org/2000/svg" width="500" zoomAndPan="magnify"
     viewBox="0 0 375 374.999991" height="500" preserveAspectRatio="xMidYMid meet" version="1.0">
    <defs>
        <clipPath id="f4d9cd5b8b">
            <path d="M 74.839844 83 L 295 83 L 295 304.15625 L 74.839844 304.15625 Z M 74.839844 83 "
                  clip-rule="nonzero"/>
        </clipPath>
        <clipPath id="f721927d12">
            <path d="M 119 70.90625 L 299.839844 70.90625 L 299.839844 258 L 119 258 Z M 119 70.90625 "
                  clip-rule="nonzero"/>
        </clipPath>
    </defs>
    <g clip-path="url(#f4d9cd5b8b)">
        <path fill="#000000"
              d="M 184.734375 83.90625 C 124.160156 83.90625 74.839844 133.308594 74.839844 193.988281 C 74.839844 254.664062 124.160156 304.066406 184.734375 304.066406 C 245.308594 304.066406 294.625 254.664062 294.625 193.988281 C 294.625 167.753906 285.765625 144.296875 270.71875 125.078125 L 260.371094 137.363281 C 273.488281 153.542969 278.621094 171.507812 278.621094 193.988281 C 278.621094 245.988281 236.644531 288.011719 184.734375 288.011719 C 132.824219 288.011719 90.84375 245.988281 90.84375 193.988281 C 90.84375 141.988281 132.824219 99.9375 184.734375 99.9375 C 201.179688 99.9375 213.484375 102.304688 226.917969 109.738281 L 236.746094 96.804688 C 221.019531 88.105469 203.925781 83.90625 184.734375 83.90625 Z M 184.734375 83.90625 "
              fill-opacity="1" fill-rule="evenodd"/>
    </g>
    <g clip-path="url(#f721927d12)">
        <path fill="#000000"
              d="M 144.0625 179.511719 C 148.492188 179.511719 151.84375 183.152344 154.117188 190.4375 C 158.664062 204.09375 161.902344 210.925781 163.832031 210.925781 C 165.308594 210.925781 166.84375 209.785156 168.433594 207.507812 C 200.363281 156.292969 229.90625 114.859375 257.0625 83.21875 C 264.105469 75.023438 275.296875 70.925781 290.636719 70.925781 C 294.273438 70.925781 296.71875 71.269531 297.96875 71.953125 C 299.21875 72.632812 299.84375 73.488281 299.84375 74.511719 C 299.839844 76.105469 297.96875 79.234375 294.21875 83.902344 C 250.359375 136.714844 209.679688 192.484375 172.183594 251.21875 C 169.570312 255.3125 164.230469 257.363281 156.164062 257.363281 C 147.980469 257.363281 143.152344 257.023438 141.675781 256.339844 C 137.8125 254.632812 133.265625 245.925781 128.039062 230.214844 C 122.132812 212.800781 119.175781 201.875 119.179688 197.4375 C 119.175781 192.65625 123.15625 188.046875 131.109375 183.605469 C 135.996094 180.875 140.3125 179.511719 144.0625 179.507812 "
              fill-opacity="1" fill-rule="nonzero"/>
    </g>
</svg>