<svg xmlns="http://www.w3.org/2000/svg" width="500" zoomAndPan="magnify"
     viewBox="0 0 375 374.999991" height="500" preserveAspectRatio="xMidYMid meet" version="1.0">
    <defs>
        <clipPath id="242a0c1c7d">
            <path d="M 74.839844 83 L 295 83 L 295 304 L 74.839844 304 Z M 74.839844 83 " clip-rule="nonzero"/>
        </clipPath>
        <clipPath id="94f62fa152">
            <path d="M 119 70.90625 L 299.839844 70.90625 L 299.839844 258 L 119 258 Z M 119 70.90625 "
                  clip-rule="nonzero"/>
        </clipPath>
    </defs>
    <g clip-path="url(#242a0c1c7d)">
        <path fill="#ffffff"
              d="M 184.886719 83.902344 C 124.230469 83.902344 74.839844 133.292969 74.839844 193.949219 C 74.839844 254.609375 124.230469 303.996094 184.886719 303.996094 C 245.546875 303.996094 294.933594 254.609375 294.933594 193.949219 C 294.933594 167.726562 286.0625 144.273438 270.992188 125.0625 L 260.628906 137.34375 C 273.769531 153.519531 278.910156 171.476562 278.910156 193.949219 C 278.910156 245.933594 236.871094 287.945312 184.886719 287.945312 C 132.902344 287.945312 90.867188 245.933594 90.867188 193.949219 C 90.867188 141.96875 132.902344 99.929688 184.886719 99.929688 C 201.359375 99.929688 213.679688 102.296875 227.128906 109.726562 L 236.972656 96.796875 C 221.226562 88.101562 204.109375 83.902344 184.886719 83.902344 Z M 184.886719 83.902344 "
              fill-opacity="1" fill-rule="evenodd"/>
    </g>
    <g clip-path="url(#94f62fa152)">
        <path fill="#ffffff"
              d="M 144.160156 179.476562 C 148.597656 179.476562 151.953125 183.117188 154.230469 190.402344 C 158.78125 204.054688 162.023438 210.882812 163.957031 210.882812 C 165.4375 210.882812 166.972656 209.746094 168.566406 207.46875 C 200.539062 156.265625 230.125 114.847656 257.316406 83.214844 C 264.371094 75.023438 275.582031 70.925781 290.941406 70.925781 C 294.582031 70.925781 297.027344 71.269531 298.28125 71.949219 C 299.53125 72.632812 300.160156 73.488281 300.160156 74.511719 C 300.15625 76.105469 298.28125 79.234375 294.527344 83.898438 C 250.605469 136.695312 209.871094 192.449219 172.320312 251.164062 C 169.703125 255.257812 164.355469 257.308594 156.277344 257.308594 C 148.085938 257.308594 143.25 256.964844 141.769531 256.28125 C 137.902344 254.574219 133.347656 245.871094 128.117188 230.167969 C 122.199219 212.757812 119.238281 201.835938 119.238281 197.398438 C 119.238281 192.621094 123.222656 188.011719 131.1875 183.574219 C 136.082031 180.84375 140.402344 179.476562 144.160156 179.476562 "
              fill-opacity="1" fill-rule="nonzero"/>
    </g>
</svg>